
<!-- Created with Inkscape (http://www.inkscape.org/) -->
<svg width="210mm" height="297mm" viewBox="0 0 210 297" version="1.1" id="svg5" xml:space="preserve" inkscape:version="1.2.2 (b0a8486541, 2022-12-01)" sodipodi:docname="junia_calque.svg"
  xmlns:inkscape="http://www.inkscape.org/namespaces/inkscape"
  xmlns:sodipodi="http://sodipodi.sourceforge.net/DTD/sodipodi-0.dtd"
  xmlns:xlink="http://www.w3.org/1999/xlink"
  xmlns="http://www.w3.org/2000/svg"
  xmlns:svg="http://www.w3.org/2000/svg">
  <sodipodi:namedview id="namedview7" pagecolor="#505050" bordercolor="#eeeeee" borderopacity="1" inkscape:showpageshadow="0" inkscape:pageopacity="0" inkscape:pagecheckerboard="0" inkscape:deskcolor="#505050" inkscape:document-units="mm" showgrid="false" inkscape:zoom="6.7277216" inkscape:cx="262.19872" inkscape:cy="338.97062" inkscape:window-width="1440" inkscape:window-height="805" inkscape:window-x="1366" inkscape:window-y="27" inkscape:window-maximized="1" inkscape:current-layer="layer1" />
  <defs id="defs2" />
  <g inkscape:label="Layer 1" inkscape:groupmode="layer" id="layer1">
    <path id="j_body" style="fill:none;stroke:#000000;stroke-width:0.264583px;stroke-linecap:butt;stroke-linejoin:miter;stroke-opacity:1" d="m 50.6536,84.396449 h 1.887712 l 0.157311,12.506092 c 0,0 -0.943856,1.887712 -1.730404,1.809057 -0.786546,-0.07865 -2.280984,0.07866 -2.280984,0.07866 l -0.235963,-2.123675 1.651746,-0.07865 c 0,0 0.471929,-0.393274 0.471929,-1.258475 0,-0.865201 0.07865,-10.932999 0.07865,-10.932999 z" />
    <path id="un_body" style="fill:none;stroke:#000000;stroke-width:0.264583px;stroke-linecap:butt;stroke-linejoin:miter;stroke-opacity:1" d="m 54.979606,84.514432 0.157311,11.011652 c 0,0 1.809057,3.696771 4.955244,2.988878 3.146186,-0.707892 2.674257,-8.258738 2.674257,-8.258738 l 5.033899,8.022775 c 0,0 0.629237,0.314619 1.022511,0.157308 0.393272,-0.157308 0.235964,-13.921875 0.235964,-13.921875 h -2.202331 l 0.07865,8.258739 -4.797935,-7.786809 c 0,0 -1.101164,-0.550585 -1.337128,-0.47193 -0.235966,0.07866 -0.235966,10.697036 -0.235966,10.697036 0,0 -3.224839,3.303494 -3.38215,-1.966368 -0.157308,-5.269862 0.07866,-8.730668 0.07866,-8.730668 z" />
    <path id="i_body" style="fill:none;stroke:#000000;stroke-width:0.264583px;stroke-linecap:butt;stroke-linejoin:miter;stroke-opacity:1" d="M 71.339778,98.161016 V 84.475105 l 2.123675,-0.07866 0.07865,13.921875 z" />
    <path id="j_point" style="fill:none;stroke:#000000;stroke-width:0.264583px;stroke-linecap:butt;stroke-linejoin:miter;stroke-opacity:1" d="m 50.6536,83.295285 v -1.730401 l 1.730404,0.07865 0.07866,1.651749 z" />
    <path id="i_point" style="fill:none;stroke:#000000;stroke-width:0.264583px;stroke-linecap:butt;stroke-linejoin:miter;stroke-opacity:1" d="m 71.339778,83.295285 -0.07865,-1.887712 2.123675,0.07865 0.07865,1.887713 z" />
    <path id="a_outer" style="fill:none;stroke:#000000;stroke-width:0.264583px;stroke-linecap:butt;stroke-linejoin:miter;stroke-opacity:1" d="M 75.823092,98.239671 V 87.699947 c 0,0 1.33713,-3.618116 3.539461,-3.460806 2.202331,0.157308 4.168696,2.752913 4.168696,2.752913 l 0.15731,11.247617 -2.123675,-0.07865 -0.07866,-5.269862 -3.460805,1.730401 -0.157308,3.618116 z" />
    <path id="a_inner" style="fill:none;stroke:#000000;stroke-width:0.264583px;stroke-linecap:butt;stroke-linejoin:miter;stroke-opacity:1" d="m 78.025423,92.104608 -0.157308,-4.247353 c 0,0 1.022509,-1.415783 1.966365,-1.258475 0.943856,0.157311 1.730404,1.651749 1.730404,1.651749 v 1.966367 z" />
  </g>
</svg>
